<svg width="30" height="31" viewBox="0 0 30 31" fill="none" xmlns="http://www.w3.org/2000/svg">
<path d="M21.1838 1.84707C19.2429 0.957889 17.1334 0.498434 14.9992 0.500004C13.2108 0.500004 11.4527 0.844575 9.76077 1.47976C10.1573 1.84051 20.6715 11.4037 21.1838 11.8704V1.84707ZM7.27846 28.369V15.4453C5.21314 17.327 3.14724 19.2082 1.08077 21.0887C2.28308 24.11 4.47769 26.6723 7.27846 28.369ZM0 15.5316C0 16.8228 0.194231 18.1359 0.544616 19.4367C0.951539 19.0671 13.5808 7.56833 13.8404 7.33129C13.5869 7.10003 8.335 2.32268 8.16385 2.16736C3.12846 4.75703 0 9.86392 0 15.5316ZM8.85346 22.0653V29.2362C10.3785 29.9207 11.9731 30.3481 13.6142 30.5H16.3685C21.5496 30.0159 26.1754 26.8149 28.4738 22.065L8.85346 22.0653ZM22.765 2.70888V20.4812H29.1488C29.7077 18.879 30 17.2144 30 15.5316C30 10.3079 27.2285 5.43114 22.765 2.70888Z" fill="black"/>
</svg>
