<svg width="14" height="15" viewBox="0 0 14 15" fill="none" xmlns="http://www.w3.org/2000/svg">
<path d="M12.2666 7.94009C12.1598 7.81843 12.1008 7.66203 12.1008 7.50009C12.1008 7.33815 12.1598 7.18175 12.2666 7.06009L13.12 6.10009C13.214 5.9952 13.2724 5.86323 13.2868 5.7231C13.3011 5.58297 13.2708 5.44188 13.2 5.32009L11.8666 3.01343C11.7966 2.89177 11.6899 2.79534 11.5618 2.73788C11.4337 2.68042 11.2908 2.66486 11.1533 2.69343L9.89997 2.94676C9.74049 2.97971 9.57447 2.95315 9.43323 2.87209C9.29199 2.79103 9.1853 2.66108 9.1333 2.50676L8.72664 1.28676C8.68191 1.15435 8.59671 1.03934 8.48306 0.957987C8.36941 0.876639 8.23307 0.833065 8.0933 0.833426H5.42664C5.28126 0.825838 5.13739 0.866044 5.01701 0.947902C4.89663 1.02976 4.80636 1.14877 4.75997 1.28676L4.38664 2.50676C4.33464 2.66108 4.22795 2.79103 4.08671 2.87209C3.94547 2.95315 3.77945 2.97971 3.61997 2.94676L2.3333 2.69343C2.20301 2.67501 2.07017 2.69557 1.95154 2.75252C1.8329 2.80946 1.73377 2.90024 1.66664 3.01343L0.333305 5.32009C0.260745 5.44053 0.22812 5.58082 0.240093 5.72091C0.252067 5.861 0.308026 5.99372 0.399971 6.10009L1.24664 7.06009C1.35352 7.18175 1.41246 7.33815 1.41246 7.50009C1.41246 7.66203 1.35352 7.81843 1.24664 7.94009L0.399971 8.90009C0.308026 9.00646 0.252067 9.13918 0.240093 9.27928C0.22812 9.41937 0.260745 9.55966 0.333305 9.68009L1.66664 11.9868C1.7367 12.1084 1.84338 12.2048 1.97147 12.2623C2.09956 12.3198 2.24252 12.3353 2.37997 12.3068L3.6333 12.0534C3.79278 12.0205 3.95881 12.047 4.10005 12.1281C4.24129 12.2092 4.34797 12.3391 4.39997 12.4934L4.80664 13.7134C4.85302 13.8514 4.9433 13.9704 5.06368 14.0523C5.18406 14.1341 5.32793 14.1743 5.4733 14.1668H8.13997C8.27973 14.1671 8.41607 14.1235 8.52972 14.0422C8.64337 13.9608 8.72858 13.8458 8.7733 13.7134L9.17997 12.4934C9.23197 12.3391 9.33866 12.2092 9.4799 12.1281C9.62113 12.047 9.78716 12.0205 9.94664 12.0534L11.2 12.3068C11.3374 12.3353 11.4804 12.3198 11.6085 12.2623C11.7366 12.2048 11.8432 12.1084 11.9133 11.9868L13.2466 9.68009C13.3174 9.5583 13.3478 9.41722 13.3334 9.27709C13.3191 9.13696 13.2607 9.00498 13.1666 8.90009L12.2666 7.94009ZM11.2733 8.83343L11.8066 9.43342L10.9533 10.9134L10.1666 10.7534C9.68649 10.6553 9.18702 10.7368 8.76303 10.9826C8.33905 11.2284 8.02007 11.6213 7.86664 12.0868L7.6133 12.8334H5.90664L5.66664 12.0734C5.51321 11.608 5.19423 11.2151 4.77024 10.9693C4.34626 10.7235 3.84679 10.6419 3.36664 10.7401L2.57997 10.9001L1.7133 9.42676L2.24664 8.82676C2.57461 8.46008 2.75593 7.98538 2.75593 7.49343C2.75593 7.00147 2.57461 6.52677 2.24664 6.16009L1.7133 5.56009L2.56664 4.09343L3.3533 4.25343C3.83345 4.35157 4.33292 4.27001 4.75691 4.02422C5.18089 3.77844 5.49987 3.38553 5.6533 2.92009L5.90664 2.16676H7.6133L7.86664 2.92676C8.02007 3.3922 8.33905 3.7851 8.76303 4.03089C9.18702 4.27668 9.68649 4.35824 10.1666 4.26009L10.9533 4.10009L11.8066 5.58009L11.2733 6.18009C10.949 6.54593 10.77 7.01788 10.77 7.50676C10.77 7.99564 10.949 8.46759 11.2733 8.83343ZM6.75997 4.83343C6.23255 4.83343 5.71698 4.98982 5.27845 5.28284C4.83992 5.57586 4.49813 5.99233 4.29629 6.4796C4.09446 6.96687 4.04165 7.50305 4.14454 8.02033C4.24744 8.53762 4.50141 9.01277 4.87435 9.38571C5.24729 9.75865 5.72245 10.0126 6.23973 10.1155C6.75701 10.2184 7.29319 10.1656 7.78046 9.96377C8.26773 9.76194 8.68421 9.42014 8.97722 8.98161C9.27024 8.54308 9.42664 8.02751 9.42664 7.50009C9.42664 6.79285 9.14569 6.11457 8.64559 5.61447C8.14549 5.11438 7.46722 4.83343 6.75997 4.83343ZM6.75997 8.83343C6.49626 8.83343 6.23848 8.75523 6.01921 8.60872C5.79994 8.46221 5.62905 8.25397 5.52813 8.01034C5.42722 7.7667 5.40081 7.49861 5.45226 7.23997C5.5037 6.98133 5.63069 6.74375 5.81716 6.55728C6.00363 6.37081 6.24121 6.24383 6.49985 6.19238C6.75849 6.14093 7.02658 6.16734 7.27022 6.26825C7.51385 6.36917 7.72209 6.54007 7.8686 6.75933C8.01511 6.9786 8.0933 7.23638 8.0933 7.50009C8.0933 7.85371 7.95283 8.19285 7.70278 8.4429C7.45273 8.69295 7.11359 8.83343 6.75997 8.83343Z" fill="black"/>
</svg>
