<svg width="35" height="36" viewBox="0 0 35 36" fill="none" xmlns="http://www.w3.org/2000/svg">
<rect opacity="0.2" y="0.5" width="35" height="35" rx="12" fill="#079C16"/>
<g clip-path="url(#clip0_39_3661)">
<mask id="mask0_39_3661" style="mask-type:luminance" maskUnits="userSpaceOnUse" x="6" y="6" width="24" height="25">
<path d="M18 28.5C19.3135 28.5017 20.6143 28.2438 21.8278 27.7412C23.0413 27.2385 24.1435 26.501 25.071 25.571C26.001 24.6435 26.7385 23.5413 27.2412 22.3278C27.7438 21.1143 28.0017 19.8135 28 18.5C28.0017 17.1865 27.7438 15.8857 27.2411 14.6722C26.7385 13.4587 26.001 12.3566 25.071 11.429C24.1435 10.499 23.0413 9.76151 21.8278 9.25885C20.6143 8.75619 19.3135 8.49831 18 8.50001C16.6865 8.49833 15.3857 8.75623 14.1722 9.25889C12.9587 9.76154 11.8566 10.499 10.929 11.429C9.99904 12.3566 9.26154 13.4587 8.75889 14.6722C8.25623 15.8857 7.99833 17.1865 8.00001 18.5C7.99831 19.8135 8.25619 21.1143 8.75885 22.3278C9.26151 23.5413 9.99902 24.6435 10.929 25.571C11.8566 26.501 12.9587 27.2385 14.1722 27.7411C15.3857 28.2438 16.6865 28.5017 18 28.5Z" fill="white" stroke="white" stroke-width="4" stroke-linejoin="round"/>
<path d="M14 18.5L17 21.5L23 15.5" stroke="black" stroke-width="4" stroke-linecap="round" stroke-linejoin="round"/>
</mask>
<g mask="url(#mask0_39_3661)">
<path d="M6 6.5H30V30.5H6V6.5Z" fill="#079C16"/>
</g>
</g>
<defs>
<clipPath id="clip0_39_3661">
<rect width="24" height="24" fill="white" transform="translate(6 6.5)"/>
</clipPath>
</defs>
</svg>
