<svg width="14" height="12" viewBox="0 0 14 12" fill="none" xmlns="http://www.w3.org/2000/svg">
<path d="M5.66671 5.50008C4.93337 5.50008 4.3056 5.23897 3.78337 4.71675C3.26115 4.19453 3.00004 3.56675 3.00004 2.83341C3.00004 2.10008 3.26115 1.4723 3.78337 0.950081C4.3056 0.427859 4.93337 0.166748 5.66671 0.166748C6.40004 0.166748 7.02782 0.427859 7.55004 0.950081C8.07226 1.4723 8.33337 2.10008 8.33337 2.83341C8.33337 3.56675 8.07226 4.19453 7.55004 4.71675C7.02782 5.23897 6.40004 5.50008 5.66671 5.50008ZM0.333374 10.8334V8.96675C0.333374 8.60008 0.427818 8.25564 0.616707 7.93341C0.805596 7.61119 1.06671 7.36675 1.40004 7.20008C1.96671 6.91119 2.6056 6.66675 3.31671 6.46675C4.02782 6.26675 4.81115 6.16675 5.66671 6.16675H5.90004C5.96671 6.16675 6.03337 6.17786 6.10004 6.20008C6.01115 6.40008 5.93626 6.60853 5.87537 6.82541C5.81449 7.0423 5.76715 7.26719 5.73337 7.50008H5.66671C4.87782 7.50008 4.1696 7.60008 3.54204 7.80008C2.91449 8.00008 2.40049 8.20008 2.00004 8.40008C1.90004 8.45564 1.81937 8.53341 1.75804 8.63341C1.69671 8.73341 1.66626 8.84453 1.66671 8.96675V9.50008H5.86671C5.93337 9.73341 6.02226 9.96408 6.13337 10.1921C6.24449 10.4201 6.36671 10.6339 6.50004 10.8334H0.333374ZM9.66671 11.5001L9.46671 10.5001C9.33337 10.4445 9.20848 10.3863 9.09204 10.3254C8.9756 10.2645 8.85604 10.1894 8.73337 10.1001L7.76671 10.4001L7.10004 9.26675L7.86671 8.60008C7.84449 8.44452 7.83337 8.30008 7.83337 8.16675C7.83337 8.03341 7.84449 7.88897 7.86671 7.73341L7.10004 7.06675L7.76671 5.93341L8.73337 6.23341C8.8556 6.14453 8.97515 6.06964 9.09204 6.00875C9.20893 5.94786 9.33382 5.88941 9.46671 5.83341L9.66671 4.83341H11L11.2 5.83341C11.3334 5.88897 11.4585 5.95008 11.5754 6.01675C11.6923 6.08341 11.8116 6.16675 11.9334 6.26675L12.9 5.93341L13.5667 7.10008L12.8 7.76675C12.8223 7.90008 12.8334 8.03897 12.8334 8.18341C12.8334 8.32786 12.8223 8.46675 12.8 8.60008L13.5667 9.26675L12.9 10.4001L11.9334 10.1001C11.8112 10.189 11.6918 10.2641 11.5754 10.3254C11.4589 10.3867 11.3338 10.445 11.2 10.5001L11 11.5001H9.66671ZM10.3334 9.50008C10.7 9.50008 11.014 9.36964 11.2754 9.10875C11.5367 8.84786 11.6672 8.53386 11.6667 8.16675C11.6667 7.80008 11.5363 7.4863 11.2754 7.22541C11.0145 6.96453 10.7005 6.83386 10.3334 6.83341C9.96671 6.83341 9.65293 6.96408 9.39204 7.22541C9.13115 7.48675 9.00049 7.80053 9.00004 8.16675C9.00004 8.53341 9.13071 8.84741 9.39204 9.10875C9.65337 9.37008 9.96715 9.50053 10.3334 9.50008ZM5.66671 4.16675C6.03337 4.16675 6.34737 4.0363 6.60871 3.77541C6.87004 3.51453 7.00049 3.20053 7.00004 2.83341C7.00004 2.46675 6.8696 2.15297 6.60871 1.89208C6.34782 1.63119 6.03382 1.50053 5.66671 1.50008C5.30004 1.50008 4.98626 1.63075 4.72537 1.89208C4.46449 2.15341 4.33382 2.46719 4.33337 2.83341C4.33337 3.20008 4.46404 3.51408 4.72537 3.77541C4.98671 4.03675 5.30049 4.16719 5.66671 4.16675Z" fill="black"/>
</svg>
