<svg width="23" height="21" viewBox="0 0 23 21" fill="none" xmlns="http://www.w3.org/2000/svg">
<path d="M7.27082 1.26591V16.3278L2.05082 19.9987C1.92387 20.088 1.77613 20.1431 1.62175 20.1589C1.46737 20.1746 1.31152 20.1505 1.16915 20.0888C1.02677 20.0271 0.902628 19.9298 0.808617 19.8063C0.714605 19.6829 0.653873 19.5373 0.632238 19.3837L0.623779 19.258V6.40979C0.623787 6.2856 0.649319 6.16274 0.69879 6.04883C0.748261 5.93493 0.820615 5.8324 0.911362 5.74762L1.00803 5.66908L7.27082 1.26591ZM22.3677 1.61633L22.3762 1.742V14.5902C22.3762 14.7144 22.3507 14.8373 22.3012 14.9512C22.2517 15.0651 22.1794 15.1676 22.0886 15.2524L21.9919 15.3309L15.7292 19.7317V4.66858L20.9492 1.00129C21.0761 0.912042 21.2238 0.856891 21.3782 0.841119C21.5326 0.825347 21.6884 0.849481 21.8308 0.911211C21.9732 0.97294 22.0973 1.0702 22.1914 1.19366C22.2854 1.31712 22.3461 1.46266 22.3677 1.61633ZM9.08332 1.26712L13.9167 4.66495V19.7292L9.08332 16.329V1.26712Z" fill="white"/>
</svg>
