<svg width="78" height="78" viewBox="0 0 78 78" fill="none" xmlns="http://www.w3.org/2000/svg">
<g id="Frame">
<g id="Group">
<g id="Group_2">
<path id="Vector" fill-rule="evenodd" clip-rule="evenodd" d="M54.7365 58.4171L71.4017 75.0823C71.8614 75.5263 72.4771 75.772 73.1162 75.7665C73.7553 75.7609 74.3667 75.5046 74.8186 75.0526C75.2706 74.6007 75.5269 73.9893 75.5325 73.3502C75.538 72.7111 75.2923 72.0954 74.8483 71.6357L58.1856 54.9705C63.1157 49.236 65.8223 41.9215 65.8125 34.359C65.8125 16.8699 51.6141 2.67151 34.125 2.67151C16.6359 2.67151 2.4375 16.8699 2.4375 34.359C2.4375 51.8481 16.6359 66.0465 34.125 66.0465C41.688 66.0568 49.0029 63.3491 54.7365 58.4171ZM34.125 7.54651C48.9231 7.54651 60.9375 19.5609 60.9375 34.359C60.9375 49.1571 48.9231 61.1715 34.125 61.1715C19.3269 61.1715 7.3125 49.1571 7.3125 34.359C7.3125 19.5609 19.3269 7.54651 34.125 7.54651Z" fill="#9B9B9B"/>
<path id="Vector_2" fill-rule="evenodd" clip-rule="evenodd" d="M19.4996 28.0556L17.7763 29.779C17.3323 30.2387 17.0866 30.8544 17.0922 31.4935C17.0977 32.1326 17.3541 32.744 17.806 33.1959C18.2579 33.6478 18.8693 33.9042 19.5084 33.9097C20.1475 33.9153 20.7632 33.6696 21.2229 33.2256L22.9463 31.5023L24.6696 33.2256C24.8959 33.452 25.1646 33.6317 25.4603 33.7543C25.7561 33.877 26.0731 33.9401 26.3932 33.9403C26.7134 33.9404 27.0305 33.8774 27.3263 33.755C27.6221 33.6326 27.8909 33.4531 28.1174 33.2268C28.3439 33.0005 28.5236 32.7318 28.6462 32.436C28.7688 32.1403 28.832 31.8233 28.8321 31.5031C28.8322 31.183 28.7693 30.8659 28.6468 30.5701C28.5244 30.2742 28.3449 30.0054 28.1186 29.779L26.3929 28.0556L28.1186 26.3323C28.5757 25.875 28.8323 25.2547 28.8321 24.6082C28.8319 23.9616 28.5748 23.3415 28.1174 22.8845C27.66 22.4274 27.0398 22.1708 26.3932 22.171C25.7466 22.1712 25.1266 22.4283 24.6696 22.8857L22.9463 24.609L21.2229 22.8857C20.9966 22.6594 20.728 22.4799 20.4323 22.3574C20.1366 22.2349 19.8197 22.1719 19.4996 22.1719C19.1796 22.1719 18.8627 22.2349 18.567 22.3574C18.2713 22.4799 18.0026 22.6594 17.7763 22.8857C17.55 23.112 17.3705 23.3807 17.248 23.6764C17.1255 23.9721 17.0625 24.289 17.0625 24.609C17.0625 24.9291 17.1255 25.246 17.248 25.5417C17.3705 25.8373 17.55 26.106 17.7763 26.3323L19.4996 28.0556ZM40.2184 28.0556L38.4951 29.779C38.0511 30.2387 37.8054 30.8544 37.8109 31.4935C37.8165 32.1326 38.0728 32.744 38.5248 33.1959C38.9767 33.6478 39.5881 33.9042 40.2272 33.9097C40.8663 33.9153 41.482 33.6696 41.9417 33.2256L43.665 31.5023L45.3883 33.2256C45.6146 33.452 45.8833 33.6317 46.1791 33.7543C46.4748 33.877 46.7918 33.9401 47.112 33.9403C47.4321 33.9404 47.7492 33.8774 48.045 33.755C48.3409 33.6326 48.6097 33.4531 48.8362 33.2268C49.0626 33.0005 49.2423 32.7318 49.3649 32.436C49.4876 32.1403 49.5507 31.8233 49.5508 31.5031C49.551 31.183 49.488 30.8659 49.3656 30.5701C49.2432 30.2742 49.0637 30.0054 48.8374 29.779L47.1116 28.0556L48.8374 26.3323C49.2944 25.875 49.5511 25.2547 49.5508 24.6082C49.5506 23.9616 49.2935 23.3415 48.8362 22.8845C48.3788 22.4274 47.7586 22.1708 47.112 22.171C46.4654 22.1712 45.8454 22.4283 45.3883 22.8857L43.665 24.609L41.9417 22.8857C41.7154 22.6594 41.4467 22.4799 41.151 22.3574C40.8553 22.2349 40.5384 22.1719 40.2184 22.1719C39.8983 22.1719 39.5814 22.2349 39.2857 22.3574C38.99 22.4799 38.7214 22.6594 38.4951 22.8857C38.2688 23.112 38.0892 23.3807 37.9668 23.6764C37.8443 23.9721 37.7812 24.289 37.7812 24.609C37.7812 24.9291 37.8443 25.246 37.9668 25.5417C38.0892 25.8373 38.2688 26.106 38.4951 26.3323L40.2184 28.0556ZM26.0053 48.3576C28.3039 46.2881 30.5683 45.2449 32.8669 45.2815C35.2142 45.318 37.5274 46.4539 39.8747 48.4161C40.3716 48.8244 41.0097 49.0198 41.65 48.9598C42.2903 48.8997 42.8809 48.589 43.2932 48.0954C43.7054 47.6018 43.9059 46.9653 43.8509 46.3245C43.7959 45.6837 43.4899 45.0907 42.9996 44.6745C39.6602 41.8836 36.2843 40.4601 32.9449 40.4065C29.5568 40.3528 26.1321 41.6837 22.7439 44.733C22.2633 45.1655 21.9741 45.7712 21.9401 46.4169C21.906 47.0626 22.1299 47.6953 22.5624 48.176C22.9948 48.6566 23.6005 48.9458 24.2462 48.9798C24.8919 49.0139 25.5247 48.7901 26.0053 48.3576Z" fill="#9B9B9B"/>
</g>
</g>
</g>
</svg>
