<svg width="24" height="24" viewBox="0 0 24 24" fill="none" xmlns="http://www.w3.org/2000/svg">
<path d="M12 10C13.379 10 14.5 8.879 14.5 7.5C14.5 6.121 13.379 5 12 5C10.621 5 9.5 6.121 9.5 7.5C9.5 8.879 10.621 10 12 10ZM12 6C12.827 6 13.5 6.673 13.5 7.5C13.5 8.327 12.827 9 12 9C11.173 9 10.5 8.327 10.5 7.5C10.5 6.673 11.173 6 12 6ZM13 11H11C9.346 11 8 12.346 8 14V17C8 18.304 8.836 19.415 10 19.828V23.5C10 23.776 10.224 24 10.5 24C10.776 24 11 23.776 11 23.5V20H13V23.5C13 23.776 13.224 24 13.5 24C13.776 24 14 23.776 14 23.5V19.828C15.164 19.415 16 18.304 16 17V14C16 12.346 14.654 11 13 11ZM15 17C15 18.103 14.103 19 13 19H11C9.897 19 9 18.103 9 17V14C9 12.897 9.897 12 11 12H13C14.103 12 15 12.897 15 14V17ZM19.5 5C20.879 5 22 3.879 22 2.5C22 1.121 20.879 0 19.5 0C18.121 0 17 1.121 17 2.5C17 3.879 18.121 5 19.5 5ZM19.5 1C20.327 1 21 1.673 21 2.5C21 3.327 20.327 4 19.5 4C18.673 4 18 3.327 18 2.5C18 1.673 18.673 1 19.5 1ZM24 9.5V13.5C24 14.893 23.181 16.099 22 16.662V23.5C22 23.776 21.776 24 21.5 24C21.224 24 21 23.776 21 23.5V16.964C20.837 16.987 20.67 17 20.5 17H18.5C18.224 17 18 16.776 18 16.5C18 16.224 18.224 16 18.5 16H20.5C21.879 16 23 14.879 23 13.5V9.5C23 8.121 21.879 7 20.5 7H18.5C18.062 7 17.629 7.115 17.25 7.334C17.01 7.473 16.704 7.391 16.567 7.151C16.428 6.912 16.51 6.606 16.75 6.468C17.28 6.161 17.886 5.999 18.5 5.999H20.5C22.43 5.999 24 7.569 24 9.499V9.5ZM4.5 5C5.879 5 7 3.879 7 2.5C7 1.121 5.879 0 4.5 0C3.121 0 2 1.121 2 2.5C2 3.879 3.121 5 4.5 5ZM4.5 1C5.327 1 6 1.673 6 2.5C6 3.327 5.327 4 4.5 4C3.673 4 3 3.327 3 2.5C3 1.673 3.673 1 4.5 1ZM7.433 7.151C7.296 7.391 6.991 7.473 6.75 7.334C6.371 7.115 5.938 7 5.5 7H3.5C2.121 7 1 8.121 1 9.5V13.5C1 14.879 2.121 16 3.5 16H5.5C5.776 16 6 16.224 6 16.5C6 16.776 5.776 17 5.5 17H3.5C3.33 17 3.163 16.988 3 16.964V23.5C3 23.776 2.776 24 2.5 24C2.224 24 2 23.776 2 23.5V16.662C0.819 16.099 0 14.893 0 13.5V9.5C0 7.57 1.57 6 3.5 6H5.5C6.114 6 6.72 6.162 7.25 6.469C7.489 6.607 7.571 6.911 7.433 7.151Z" fill="#626467"/>
</svg>
