<svg width="14" height="14" viewBox="0 0 14 14" fill="none" xmlns="http://www.w3.org/2000/svg">
<path d="M3.414 8.34308L7.364 12.2931C7.54616 12.4817 7.64695 12.7343 7.64467 12.9965C7.6424 13.2587 7.53723 13.5095 7.35182 13.6949C7.16641 13.8803 6.9156 13.9855 6.6534 13.9878C6.3912 13.99 6.1386 13.8892 5.95 13.7071L0.293 8.05008C0.199814 7.95743 0.125865 7.84727 0.0754036 7.72594C0.0249418 7.6046 -0.00103531 7.47449 -0.00103532 7.34308C-0.00103533 7.21167 0.0249418 7.08156 0.0754036 6.96023C0.125865 6.8389 0.199814 6.72874 0.293 6.63608L5.95 0.979082C6.04225 0.883571 6.15259 0.80739 6.27459 0.754981C6.3966 0.702572 6.52782 0.674986 6.6606 0.673832C6.79338 0.672678 6.92506 0.69798 7.04795 0.74826C7.17085 0.798541 7.2825 0.872794 7.37639 0.966687C7.47029 1.06058 7.54454 1.17223 7.59482 1.29513C7.6451 1.41802 7.6704 1.5497 7.66925 1.68248C7.6681 1.81526 7.64051 1.94648 7.5881 2.06849C7.53569 2.19049 7.45951 2.30083 7.364 2.39308L3.414 6.34308L13 6.34308C13.2652 6.34308 13.5196 6.44844 13.7071 6.63597C13.8946 6.82351 14 7.07786 14 7.34308C14 7.6083 13.8946 7.86265 13.7071 8.05019C13.5196 8.23772 13.2652 8.34308 13 8.34308L3.414 8.34308Z" fill="#484C52"/>
</svg>
