<svg width="21" height="13" viewBox="0 0 21 13" fill="none" xmlns="http://www.w3.org/2000/svg">
<path d="M19.2799 8.065C19.3305 8.22266 19.4415 8.35383 19.5887 8.42975C19.7359 8.50567 19.9071 8.52014 20.0649 8.47C20.3899 8.365 20.5749 8.015 20.4699 7.685L20.4694 7.6835C20.4249 7.55 17.9204 0 10.4994 0C3.07991 0 0.574906 7.55 0.530906 7.6835L0.530406 7.685C0.425406 8.015 0.605406 8.365 0.935406 8.47C1.26541 8.575 1.61541 8.395 1.72041 8.065C1.81041 7.785 3.97541 1.25 10.5004 1.25C17.0254 1.25 19.1899 7.785 19.2799 8.065ZM10.4999 13C11.6934 13 12.838 12.5259 13.6819 11.682C14.5258 10.8381 14.9999 9.69347 14.9999 8.5C14.9999 7.30653 14.5258 6.16193 13.6819 5.31802C12.838 4.47411 11.6934 4 10.4999 4C9.30643 4 8.16184 4.47411 7.31793 5.31802C6.47401 6.16193 5.99991 7.30653 5.99991 8.5C5.99991 9.69347 6.47401 10.8381 7.31793 11.682C8.16184 12.5259 9.30643 13 10.4999 13Z" fill="white"/>
</svg>
