<svg width="18" height="24" viewBox="0 0 18 24" fill="none" xmlns="http://www.w3.org/2000/svg">
<path d="M9 7.5C7.80653 7.5 6.66193 7.97411 5.81802 8.81802C4.97411 9.66193 4.5 10.8065 4.5 12C4.5 13.1935 4.97411 14.3381 5.81802 15.182C6.66193 16.0259 7.80653 16.5 9 16.5C10.1935 16.5 11.3381 16.0259 12.182 15.182C13.0259 14.3381 13.5 13.1935 13.5 12C13.5 10.8065 13.0259 9.66193 12.182 8.81802C11.3381 7.97411 10.1935 7.5 9 7.5ZM6 12C6 11.2044 6.31607 10.4413 6.87868 9.87868C7.44129 9.31607 8.20435 9 9 9C9.79565 9 10.5587 9.31607 11.1213 9.87868C11.6839 10.4413 12 11.2044 12 12C12 12.7956 11.6839 13.5587 11.1213 14.1213C10.5587 14.6839 9.79565 15 9 15C8.20435 15 7.44129 14.6839 6.87868 14.1213C6.31607 13.5587 6 12.7956 6 12ZM5.25 18C5.05109 18 4.86032 18.079 4.71967 18.2197C4.57902 18.3603 4.5 18.5511 4.5 18.75C4.5 18.9489 4.57902 19.1397 4.71967 19.2803C4.86032 19.421 5.05109 19.5 5.25 19.5H12.75C12.9489 19.5 13.1397 19.421 13.2803 19.2803C13.421 19.1397 13.5 18.9489 13.5 18.75C13.5 18.5511 13.421 18.3603 13.2803 18.2197C13.1397 18.079 12.9489 18 12.75 18H5.25Z" fill="#626467"/>
<path d="M1.848 2.66402C1.32944 2.75818 0.860383 3.0314 0.522654 3.43602C0.184924 3.84063 -4.76028e-05 4.35097 9.18923e-09 4.87802V21.303C9.18923e-09 21.9705 0.2865 22.56 0.735 22.968C1.2855 23.601 2.097 24 3 24H15C15.7956 24 16.5587 23.6839 17.1213 23.1213C17.6839 22.5587 18 21.7957 18 21V6.00002C18 5.47342 17.8614 4.9561 17.5981 4.50006C17.3348 4.04402 16.956 3.66531 16.5 3.40202V2.69702C16.5002 2.36735 16.4281 2.04166 16.2885 1.74298C16.149 1.4443 15.9455 1.17993 15.6925 0.968577C15.4395 0.757222 15.1432 0.604043 14.8244 0.519877C14.5057 0.435712 14.1724 0.422616 13.848 0.481516L1.848 2.66252V2.66402ZM3 4.50002H15C15.3978 4.50002 15.7794 4.65805 16.0607 4.93936C16.342 5.22066 16.5 5.60219 16.5 6.00002V21C16.5 21.3978 16.342 21.7794 16.0607 22.0607C15.7794 22.342 15.3978 22.5 15 22.5H3C2.60218 22.5 2.22064 22.342 1.93934 22.0607C1.65804 21.7794 1.5 21.3978 1.5 21V6.00002C1.5 5.60219 1.65804 5.22066 1.93934 4.93936C2.22064 4.65805 2.60218 4.50002 3 4.50002Z" fill="#626467"/>
</svg>
