<svg width="35" height="36" viewBox="0 0 35 36" fill="none" xmlns="http://www.w3.org/2000/svg">
<rect y="0.5" width="35" height="35" rx="12" fill="#FFF5E1"/>
<path d="M17.5 9C12.5312 9 8.5 13.0312 8.5 18C8.5 22.9687 12.5312 27 17.5 27C22.4687 27 26.5 22.9687 26.5 18C26.5 13.0312 22.4687 9 17.5 9ZM17.2187 23.25C17.0333 23.25 16.8521 23.195 16.6979 23.092C16.5437 22.989 16.4236 22.8426 16.3526 22.6713C16.2817 22.5 16.2631 22.3115 16.2993 22.1296C16.3354 21.9477 16.4247 21.7807 16.5558 21.6496C16.6869 21.5185 16.854 21.4292 17.0359 21.393C17.2177 21.3568 17.4062 21.3754 17.5775 21.4464C17.7488 21.5173 17.8952 21.6375 17.9983 21.7916C18.1013 21.9458 18.1562 22.1271 18.1562 22.3125C18.1562 22.5611 18.0575 22.7996 17.8817 22.9754C17.7058 23.1512 17.4674 23.25 17.2187 23.25ZM18.7862 18.4687C18.0264 18.9787 17.9219 19.4461 17.9219 19.875C17.9219 20.049 17.8527 20.216 17.7297 20.339C17.6066 20.4621 17.4397 20.5312 17.2656 20.5312C17.0916 20.5312 16.9247 20.4621 16.8016 20.339C16.6785 20.216 16.6094 20.049 16.6094 19.875C16.6094 18.848 17.0819 18.0314 18.0541 17.3784C18.9578 16.7719 19.4687 16.3875 19.4687 15.5423C19.4687 14.9677 19.1406 14.5312 18.4614 14.2083C18.3016 14.1323 17.9458 14.0583 17.508 14.0634C16.9586 14.0705 16.532 14.2017 16.2034 14.4661C15.5837 14.9648 15.5312 15.5077 15.5312 15.5156C15.5271 15.6018 15.506 15.6863 15.4692 15.7644C15.4324 15.8424 15.3805 15.9124 15.3167 15.9704C15.2528 16.0284 15.1781 16.0732 15.0969 16.1024C15.0157 16.1315 14.9295 16.1444 14.8434 16.1402C14.7572 16.1361 14.6727 16.115 14.5946 16.0782C14.5166 16.0414 14.4466 15.9895 14.3886 15.9256C14.3306 15.8618 14.2857 15.7871 14.2566 15.7059C14.2275 15.6247 14.2146 15.5385 14.2187 15.4523C14.2239 15.3384 14.3031 14.3123 15.3798 13.4461C15.9381 12.997 16.6483 12.7636 17.4892 12.7533C18.0845 12.7462 18.6437 12.847 19.023 13.0261C20.1578 13.5628 20.7812 14.4577 20.7812 15.5423C20.7812 17.1281 19.7214 17.8402 18.7862 18.4687Z" fill="#CBA305"/>
</svg>
